<svg version="1.1" id="Layer_1" xmlns="http://www.w3.org/2000/svg" xmlns:xlink="http://www.w3.org/1999/xlink" x="0px" y="0px" width="81.107px" height="100.001px" viewBox="0 0 81.107 100.001" enable-background="new 0 0 81.107 100.001" xml:space="preserve">
<g>
	<g>
		<path fill="#5E6A71" d="M55.171,84.725L40.562,95.127L25.959,84.725C15.58,77.631,6.682,71.543,2.017,62.301    c3.851,17.326,20.793,23.806,38.546,37.7c17.753-13.895,34.699-20.374,38.55-37.7C74.449,71.543,65.552,77.631,55.171,84.725z"/>
		<path fill="#981E32" d="M0,0v1.816c1.13,0.389,1.5,0.748,1.625,2.397v41.88c0,23.293,18.952,29.446,38.947,45.098    c20-15.651,38.967-21.805,38.967-45.098V3.746c0.146-1.273,0.555-1.58,1.568-1.929V0H0z"/>
	</g>
	<g>
		<g>
			<g>
				<path fill="#FFFFFF" d="M48.461,68.176c0,0,3.243-1.381,5.015-6.738c1.562,3.267,1.148,6.627,1.148,6.627      C53.195,68.385,48.461,68.176,48.461,68.176z"/>
				<path fill="#FFFFFF" d="M65.863,37.542c0,0,1.975,10.763-5.02,11.129c-6.748,0.354-9.938-9.803-9.938-9.803      s1.631,19.853,11.096,18.543C72.662,55.938,65.863,37.542,65.863,37.542z"/>
			</g>
		</g>
		<path fill="#FFFFFF" d="M14.46,65.618c0.002,0,0.007,0,0.014,0c7.892-1.797,13.931-11.011,15.707-14.71l1.126-2.345l0.681,2.511    c0.031,0.14,0.77,2.898,0.77,6.55c0,0.402-0.013,0.822-0.031,1.239c2.72,0.1,4.664-0.447,5.872-1.699    c1.732-1.802,2.257-5.194,1.603-10.388c-0.314-2.486-1.233-6.443-2.043-9.929c-0.418-1.783-0.809-3.467-1.046-4.66    c-1.522-7.632,0.365-12.366,2.217-14.993c0.294-0.415,0.61-0.809,0.944-1.183c-5.453,1.839-10.034,4.697-14.761,9.416l3.321,3.86    l1.36-1.269c1.28,4.783,0.361,9.194,0.361,9.194c-1.748-2.662-3.813-4.82-3.813-4.82l0.908-1.522l-2.996-3.48l-0.349-0.387    c-3.679,5.062-4.875,9.203-4.875,9.203l2.616,2.382l1.522,1.382l0.507-1.467c2.809,5.255,0.25,10.175,0.25,10.175    c-0.472-1.798-2.315-4.441-2.315-4.441l0.73-2.41l-3.884-3.523c-4.047,12.634-9.458,16.732-9.458,16.732s5.854-1.055,9.108-2.146    C18.505,52.891,18.414,59.548,14.46,65.618z"/>
		<path fill="#FFFFFF" d="M73.451,20.038l-9.336,0.395c0.012,1.104-0.143,2.213-0.504,3.265c0.879,3.813,0.281,5.883,0.281,5.883    c-1.568-3.637-2.764-4.64-2.764-4.64c-8.568-3.818-13.386,4.803-12.869,10.358c0.418,4.567,2.072,10.63,3.367,20.136    c1.094,8.002-2.962,11.459-7.625,12.253c-0.102,0.016-0.2,0.036-0.301,0.054c-0.021,0-0.05,0.009-0.074,0.009    c-0.748,0.098-1.561,0.134-2.41,0.106c-0.031,0-0.058,0-0.084,0c-0.094,0-0.189-0.009-0.276-0.009    c-0.365-0.024-0.726-0.057-1.082-0.106c-3.624-0.499-11.743-1.975-20.125-2.177c4.932-2.883,8.792-7.863,10.942-11.402    c0.125,0.981,0.231,2.177,0.231,3.49c0,0.656-0.028,1.342-0.093,2.052l-0.08,0.959l0.966,0.088    c3.859,0.333,6.602-0.402,8.374-2.249c2.197-2.279,2.872-6.083,2.131-11.968c-0.324-2.589-1.256-6.591-2.074-10.127    c-0.418-1.771-0.81-3.439-1.037-4.603c-1.384-6.956,0.265-11.178,1.896-13.496c1.292-1.82,3.053-3.144,4.992-3.79    c0.033,0,0.065-0.013,0.097-0.013l3.188-9.79h0.992l-2.132,9.407c0.499-0.094,0.997-0.172,1.515-0.248L52.3,5.203h0.994    l-1.801,8.401c2.846-0.368,5.936-0.65,9.361-0.908c0.555,0.234,1.146,0.869,1.682,1.76l8.986-2.764l0.326,0.964l-8.584,3.343    c0.072,0.173,0.129,0.361,0.197,0.543l9.387-1.169l0.156,1.012l-9.113,1.816c0.033,0.174,0.061,0.341,0.08,0.51l9.488,0.305    L73.451,20.038z M46.405,24.234c1.884-1.315,5.087-2.333,8.087-2.105c0.768,0.061,1.406-0.139,0.584-0.582    c-2.246-1.182-7.484-0.782-9.339,0.49c-2.966,2.022-2.468,5.629-2.396,5.716C43.932,26.723,44.943,25.27,46.405,24.234z"/>
	</g>
</g>
</svg>
